<?xml version="1.0" encoding="UTF-8"?>
<!DOCTYPE svg PUBLIC "-//W3C//DTD SVG 1.1//EN" "http://www.w3.org/Graphics/SVG/1.1/DTD/svg11.dtd">
<svg xmlns="http://www.w3.org/2000/svg" version="1.1" width="45px" height="48px" style="shape-rendering:geometricPrecision; text-rendering:geometricPrecision; image-rendering:optimizeQuality; fill-rule:evenodd; clip-rule:evenodd" xmlns:xlink="http://www.w3.org/1999/xlink">
<g><path style="opacity:1" fill="#241c1e" d="M -0.5,-0.5 C 14.5,-0.5 29.5,-0.5 44.5,-0.5C 44.5,15.5 44.5,31.5 44.5,47.5C 29.5,47.5 14.5,47.5 -0.5,47.5C -0.5,31.5 -0.5,15.5 -0.5,-0.5 Z"/></g>
<g><path style="opacity:1" fill="#992262" d="M 23.5,10.5 C 28.3225,17.4681 32.6558,24.8014 36.5,32.5C 36.1667,32.5 35.8333,32.5 35.5,32.5C 33.5,31.5 31.5,30.5 29.5,29.5C 27.5,26.1667 25.5,22.8333 23.5,19.5C 23.5,16.5 23.5,13.5 23.5,10.5 Z"/></g>
<g><path style="opacity:1" fill="#f24627" d="M 23.5,10.5 C 23.5,13.5 23.5,16.5 23.5,19.5C 21.5146,22.7976 19.5146,26.1309 17.5,29.5C 15.5168,30.4706 13.5168,31.4706 11.5,32.5C 11.1667,32.5 10.8333,32.5 10.5,32.5C 14.3327,24.829 18.666,17.4957 23.5,10.5 Z"/></g>
<g><path style="opacity:1" fill="#f1e4ed" d="M 23.5,19.5 C 25.5,22.8333 27.5,26.1667 29.5,29.5C 25.5,29.5 21.5,29.5 17.5,29.5C 19.5146,26.1309 21.5146,22.7976 23.5,19.5 Z"/></g>
<g><path style="opacity:1" fill="#662d8e" d="M 17.5,29.5 C 21.5,29.5 25.5,29.5 29.5,29.5C 31.5,30.5 33.5,31.5 35.5,32.5C 27.5,33.8333 19.5,33.8333 11.5,32.5C 13.5168,31.4706 15.5168,30.4706 17.5,29.5 Z"/></g>
<g><path style="opacity:1" fill="#4a2455" d="M 10.5,32.5 C 10.8333,32.5 11.1667,32.5 11.5,32.5C 19.5,33.8333 27.5,33.8333 35.5,32.5C 35.8333,32.5 36.1667,32.5 36.5,32.5C 37.0431,32.56 37.3764,32.8933 37.5,33.5C 28.1667,34.8333 18.8333,34.8333 9.5,33.5C 9.62358,32.8933 9.95691,32.56 10.5,32.5 Z"/></g>
</svg>
